<svg width="73" height="28" viewBox="0 0 73 28" fill="none" xmlns="http://www.w3.org/2000/svg">
<path d="M0.515839 28L5.40107 0H14.1945L9.30925 21.6774H34.7124C40.9655 21.6774 41.2261 16.8602 40.5747 14.4516H38.6206L43.5058 9.93548L49.3681 14.4516H47.414C47.414 24.5677 38.9463 27.6989 34.7124 28H0.515839Z" fill="#121720"/>
<path d="M18.1027 14.4516H20.0567C20.8384 3.6129 30.1529 0.301075 34.7124 0H72.8172V6.32258L57.1845 22.5806H69.8861L68.909 28H47.414V22.5806L63.0468 7.22581H34.7124C26.1144 7.22581 25.2677 12.043 25.919 14.4516H28.8502L22.9879 18.9677L18.1027 14.4516Z" fill="#121720"/>
</svg>
